<?xml version="1.0" encoding="UTF-8"?>
<svg id="Isolation_Mode" xmlns="http://www.w3.org/2000/svg" viewBox="0 0 172.4 156.62">
  <defs>
    <style>
      .cls-1 {
        fill: #fff;
      }
    </style>
  </defs>
  <g id="_x39_63_x2C__Badge_x2C__ecommerce_x2C__finance_x2C__guarantee_x2C__trusted">
    <path class="cls-1" d="M94.33,80.51c-.62,0-1.04-.21-1.45-.41l-8.09-5.96-8.09,5.75c-.83.62-2.08.62-3.11,0-.83-.62-1.25-1.85-1.04-2.88l3.11-9.45-8.09-5.75c-.83-.62-1.25-1.85-1.04-2.88.41-1.03,1.25-1.85,2.49-1.85h9.96l3.11-9.45c.42-1.03,1.25-1.85,2.49-1.85h0c1.04,0,2.08.62,2.49,1.85l3.11,9.45h10.17c1.04,0,2.08.62,2.49,1.85.42,1.03,0,2.26-1.04,2.88l-8.09,5.75,3.11,9.45c.42,1.03,0,2.26-1.04,2.88-.21.41-.83.62-1.45.62ZM77.11,62.22l3.11,2.26c.83.62,1.25,1.85,1.04,2.88l-1.25,3.7,3.11-2.26c.83-.62,2.07-.62,3.11,0l3.11,2.26-1.25-3.7c-.42-1.03,0-2.26,1.04-2.88l3.11-2.26h-3.94c-1.04,0-2.07-.62-2.49-1.85l-1.25-3.7-1.25,3.7c-.41,1.03-1.25,1.85-2.49,1.85h-3.74Z"/>
    <path class="cls-1" d="M84.79,110.1c-3.94,0-7.47-1.44-10.38-4.11-.62-.62-1.45-.82-2.28-.62-1.04.2-2.28.41-3.53.41-1.87,0-3.74-.41-5.4-1.03-.83-.21-1.45-.62-2.07-1.03-3.32-1.85-5.81-4.93-6.85-8.63-.21-.82-.83-1.44-1.66-1.64-3.74-1.03-6.85-3.49-8.72-6.78-1.87-3.29-2.49-7.19-1.66-10.89.21-.82,0-1.64-.62-2.26-2.7-2.88-4.15-6.37-4.15-10.27s1.45-7.4,4.15-10.27c.62-.62.83-1.44.62-2.26-.83-3.7-.21-7.6,1.66-10.89,1.87-3.29,4.98-5.75,8.72-6.99.83-.21,1.45-.82,1.66-1.64,1.04-3.7,3.53-6.78,7.06-8.63,2.28-1.23,4.98-2.05,7.68-2.05,1.25,0,2.28.21,3.53.41.83.21,1.66,0,2.28-.62,2.91-2.67,6.43-4.11,10.38-4.11s7.68,1.44,10.38,4.11c.62.62,1.45.82,2.28.62,1.04-.21,2.28-.41,3.53-.41,2.7,0,5.19.62,7.68,2.05,3.32,1.85,5.81,4.93,7.06,8.63.21.82.83,1.44,1.66,1.64,3.74,1.03,6.85,3.49,8.72,6.99,1.87,3.29,2.49,7.19,1.66,10.89-.21.82,0,1.64.62,2.26,2.7,2.88,4.15,6.37,4.15,10.27s-1.45,7.6-4.15,10.27c-.62.62-.83,1.44-.62,2.26.83,3.7.21,7.6-1.66,10.89-1.87,3.29-4.98,5.75-8.72,6.78-.83.21-1.45.82-1.66,1.64-1.04,3.7-3.53,6.78-7.06,8.63-.62.41-1.45.82-2.07,1.03-1.66.62-3.53,1.03-5.4,1.03-1.25,0-2.28-.21-3.53-.41-.83-.21-1.66,0-2.28.62-3.32,2.67-7.06,4.11-11,4.11ZM72.75,100.23c1.87,0,3.74.82,5.19,2.05,1.87,1.64,4.36,2.67,6.85,2.67s4.98-1.03,6.85-2.67c1.45-1.23,3.32-2.05,5.19-2.05.62,0,1.25,0,1.66.2.83.21,1.45.21,2.28.21,1.25,0,2.49-.21,3.53-.62.42-.21,1.04-.41,1.45-.62,2.28-1.23,3.74-3.29,4.57-5.75.83-2.47,2.7-4.32,4.98-4.93,2.49-.82,4.57-2.26,5.81-4.52,1.25-2.26,1.66-4.73,1.04-7.19-.62-2.47.21-5.14,1.87-6.78,1.66-1.85,2.7-4.32,2.7-6.78s-1.04-4.93-2.7-6.78c-1.66-1.85-2.49-4.52-1.87-6.78.62-2.47.21-4.93-1.04-7.19-1.24-2.26-3.32-3.9-5.81-4.52-2.49-.82-4.36-2.67-5.19-5.14s-2.28-4.52-4.57-5.75c-2.28-1.23-4.77-1.64-7.26-1.03-.62.2-1.24.2-1.66.2-1.87,0-3.74-.82-5.19-2.05-1.87-1.64-4.36-2.67-6.85-2.67s-4.98,1.03-6.85,2.67c-1.45,1.23-3.32,2.05-5.19,2.05-.62,0-1.25,0-1.66-.2-2.49-.62-5.19-.21-7.26,1.03-2.28,1.23-3.94,3.29-4.57,5.75-.83,2.47-2.7,4.32-5.19,5.14s-4.57,2.26-5.81,4.52c-1.25,2.26-1.66,4.73-1.04,7.19.62,2.47-.21,5.14-1.87,6.99-1.66,1.85-2.7,4.32-2.7,6.78s1.04,4.93,2.7,6.78c1.66,1.85,2.49,4.52,1.87,6.99-.62,2.47-.21,4.93,1.04,7.19,1.25,2.26,3.32,3.9,5.81,4.52,2.49.82,4.36,2.67,5.19,5.14.83,2.47,2.28,4.52,4.57,5.75.42.21,1.04.41,1.45.62,1.25.41,2.28.62,3.53.62.83,0,1.45,0,2.28-.21.62-.82,1.25-.82,1.87-.82Z"/>
    <path class="cls-1" d="M84.79,93.66c-17.02,0-30.71-13.56-30.71-30.41s13.7-30.41,30.71-30.41,30.71,13.56,30.71,30.41-13.7,30.41-30.71,30.41ZM84.79,37.97c-14.11,0-25.52,11.3-25.52,25.27s11.41,25.27,25.52,25.27,25.52-11.3,25.52-25.27-11.41-25.27-25.52-25.27Z"/>
    <path class="cls-1" d="M116.95,135.78c-.21,0-.62,0-.83-.21l-32.17-10.68c-1.45-.41-2.08-1.85-1.66-3.29.42-1.44,1.87-2.05,3.32-1.64l26.98,9.04-9.75-25.69c-.41-1.23.21-2.88,1.45-3.29,1.25-.41,2.91.21,3.32,1.44l11.62,30.62c.42,1.03.21,2.05-.62,2.67-.21.62-1.04,1.03-1.66,1.03Z"/>
    <path class="cls-1" d="M52.2,135.78c-.62,0-1.45-.21-1.87-.82-.62-.82-.83-1.85-.62-2.67l12.04-30.62c.62-1.23,2.07-2.05,3.32-1.44,1.25.62,2.07,2.05,1.45,3.29l-10.17,25.69,25.73-8.42v-12.95c0-1.44,1.25-2.67,2.7-2.67s2.7,1.23,2.7,2.67v14.8c0,1.03-.62,2.05-1.87,2.47l-32.79,10.69c-.21-.21-.42,0-.62,0Z"/>
  </g>
</svg>