<?xml version="1.0" encoding="UTF-8"?>
<svg id="Isolation_Mode" xmlns="http://www.w3.org/2000/svg" viewBox="0 0 172.4 156.62">
  <defs>
    <style>
      .cls-1 {
        fill: #fff;
      }
    </style>
  </defs>
  <g id="_x33_01_x2C__Approve_x2C__chat_approve_x2C__speech_x2C__success">
    <path class="cls-1" d="M77.96,95.01c-.69,0-1.38-.23-2.07-.92l-15.62-15.62c-1.61-1.61-2.3-3.45-2.3-5.51s.92-4.14,2.3-5.51c1.61-1.61,3.45-2.3,5.51-2.3s4.14.92,5.52,2.3l6.43,6.43,20.68-20.68c1.61-1.61,3.45-2.3,5.52-2.3s4.14.92,5.51,2.3c1.61,1.61,2.3,3.45,2.3,5.52s-.92,4.14-2.3,5.51l-29.87,29.87c-.23.69-.92.92-1.61.92ZM66.02,70.88c-.69,0-1.15.23-1.61.69-.46.46-.69.92-.69,1.61s.23,1.15.69,1.61l13.56,13.56,27.8-28.03c.46-.46.69-.92.69-1.61s-.23-1.15-.69-1.61c-.46-.46-.92-.69-1.61-.69s-1.15.23-1.61.69l-22.74,22.75c-1.15,1.15-2.99,1.15-4.14,0l-8.27-8.27c-.23-.46-.92-.69-1.38-.69Z"/>
    <path class="cls-1" d="M133.79,135.9c-.46,0-.92,0-1.38-.23l-31.25-17H34.31c-5.29,0-9.42-4.37-9.42-9.42V36.19c0-5.28,4.37-9.42,9.42-9.42h101.78c5.28,0,9.42,4.37,9.42,9.42v73.06c0,5.28-4.36,9.42-9.42,9.42h-1.38l2.3,13.79v.69c-.23,1.38-1.61,2.76-3.22,2.76q.23,0,0,0ZM34.31,32.51c-2.07,0-3.68,1.61-3.68,3.68v73.06c0,2.07,1.61,3.68,3.68,3.68h67.55c.46,0,.92.23,1.38.23l26.88,14.48-1.84-11.49c-.23-.92,0-1.61.69-2.3.46-.69,1.38-.92,2.3-.92h4.83c2.07,0,3.68-1.61,3.68-3.68V36.19c0-2.07-1.61-3.68-3.68-3.68H34.31Z"/>
  </g>
</svg>