<?xml version="1.0" encoding="UTF-8"?>
<svg id="Isolation_Mode" xmlns="http://www.w3.org/2000/svg" viewBox="0 0 172.4 156.62">
  <defs>
    <style>
      .cls-1 {
        fill: #fff;
      }
    </style>
  </defs>
  <g id="_x37_9_x2C__Sailboat_x2C__Sea_x2C__Ship_x2C__Summer">
    <g>
      <path class="cls-1" d="M138.23,61.47c.22.43.22.65.22,1.08,0,1.08-.65,2.17-1.73,2.6-.43.22-.65.22-1.08.22-1.08,0-2.17-.65-2.6-1.73-.65-1.3.22-3.03,1.52-3.47.43-.22.65-.22,1.08-.22,1.3-.22,2.17.43,2.6,1.52Z"/>
      <path class="cls-1" d="M138.23,121.05c.22.43.22.65.22,1.08,0,1.08-.65,2.17-1.73,2.6-.43.22-.65.22-1.08.22-1.08,0-2.17-.65-2.6-1.73-.65-1.3.22-3.03,1.52-3.47.43-.22.65-.22,1.08-.22,1.3-.22,2.17.43,2.6,1.52Z"/>
      <path class="cls-1" d="M135.63,83.14c.22.43.22.65.22,1.08,0,1.08-.65,2.17-1.73,2.6-.43.22-.65.22-1.08.22-1.08,0-2.17-.65-2.6-1.73-.65-1.3.22-3.03,1.52-3.47.43-.22.65-.22,1.08-.22,1.08-.22,2.17.43,2.6,1.52Z"/>
      <polygon class="cls-1" points="130 29.84 131.95 34.82 126.96 36.99 125.01 32.01 130 29.84"/>
      <path class="cls-1" d="M130.21,121.05c.22.43.22.65.22,1.08,0,1.08-.65,2.17-1.73,2.6-.43.22-.65.22-1.08.22-1.08,0-2.17-.65-2.6-1.73-.65-1.3.22-3.03,1.52-3.47.43-.22.65-.22,1.08-.22,1.08-.22,2.17.43,2.6,1.52Z"/>
      <polygon class="cls-1" points="124.58 94.84 126.53 99.82 121.55 101.98 119.6 97 124.58 94.84"/>
      <path class="cls-1" d="M111.15,56.06c.22.43.22.65.22,1.08,0,1.08-.65,2.17-1.73,2.6-.43.22-.65.22-1.08.22-1.08,0-2.16-.65-2.6-1.73-.65-1.3.22-3.03,1.52-3.47.43-.22.65-.22,1.08-.22,1.3-.22,2.17.43,2.6,1.52Z"/>
      <path class="cls-1" d="M103.13,56.06c.22.43.22.65.22,1.08,0,1.08-.65,2.17-1.73,2.6-.43.22-.65.22-1.08.22-1.08,0-2.17-.65-2.6-1.73-.65-1.3.22-3.03,1.52-3.47.43-.22.65-.22,1.08-.22,1.08-.22,2.17.43,2.6,1.52Z"/>
      <path class="cls-1" d="M40.74,91.15c.22.43.22.65.22,1.08,0,1.08-.65,2.17-1.73,2.6-.43.22-.65.22-1.08.22-1.08,0-2.17-.65-2.6-1.73-.65-1.3.22-3.03,1.52-3.47.43-.22.65-.22,1.08-.22,1.3-.22,2.17.43,2.6,1.52Z"/>
      <polygon class="cls-1" points="37.05 56.06 39.22 61.26 34.02 63.21 32.07 58.22 37.05 56.06"/>
      <path class="cls-1" d="M32.72,131.88c.22.43.22.65.22,1.08,0,1.08-.65,2.17-1.73,2.6-.43.22-.65.22-1.08.22-1.08,0-2.17-.65-2.6-1.73-.65-1.3.22-3.03,1.52-3.47.43-.22.65-.22,1.08-.22,1.08-.22,2.17.43,2.6,1.52Z"/>
      <path class="cls-1" d="M84.28,124.73h-24.27c-.65,0-1.52-.22-1.95-.87-.43-.65-.87-1.3-.87-1.95.65-27.08-12.78-45.28-13-45.5-.43-.65-.65-1.52-.43-2.38.22-.87.87-1.52,1.73-1.73l5.41-1.95c1.52-.43,3.03.22,3.47,1.73.43,1.3-.22,3.03-1.73,3.47l-2.17.87c3.9,6.28,11.92,21.66,12.13,43.11h21.67c1.52,0,2.81,1.3,2.81,2.82,0,1.08-1.3,2.38-2.81,2.38Z"/>
      <path class="cls-1" d="M52.87,86.82c-1.08,0-2.17-.65-2.6-1.95-.44-1.52.22-3.03,1.73-3.47l16.25-5.42c1.52-.43,3.03.22,3.47,1.73.43,1.52-.22,3.03-1.73,3.47l-16.25,5.42c-.22.22-.43.22-.87.22Z"/>
      <path class="cls-1" d="M108.76,124.73h-24.48c-1.52,0-2.82-1.3-2.82-2.82v-60.66c0-1.52,1.3-2.82,2.82-2.82s2.81,1.3,2.81,2.82v58.06h18.85c.22-21.23,8.23-36.83,12.13-43.11l-2.17-.87c-1.52-.43-2.16-1.95-1.73-3.47.43-1.52,1.95-2.17,3.47-1.73l5.42,1.95c.87.22,1.52.87,1.73,1.73.22.87,0,1.73-.43,2.38-.22.22-13.65,18.42-13,45.5,0,.65-.22,1.52-.87,1.95-.43.65-1.08,1.08-1.73,1.08Z"/>
      <path class="cls-1" d="M115.7,86.82c-.22,0-.65,0-.87-.22l-16.25-5.42c-1.52-.43-2.17-1.95-1.73-3.47.43-1.52,1.95-2.17,3.47-1.73l16.25,5.42c1.52.43,2.17,1.95,1.73,3.47-.43,1.08-1.52,1.95-2.6,1.95Z"/>
      <path class="cls-1" d="M62.62,59.74h-9.75c-1.52,0-2.82-1.3-2.82-2.82s1.3-2.82,2.82-2.82h9.75c1.52,0,2.82,1.3,2.82,2.82s-1.3,2.82-2.82,2.82Z"/>
      <path class="cls-1" d="M62.62,51.51c-1.52,0-2.82-1.3-2.82-2.82v-29.68c0-1.52,1.3-2.82,2.82-2.82h21.67c1.52,0,2.81,1.3,2.81,2.82v9.75c0,1.52-1.3,2.82-2.81,2.82s-2.82-1.3-2.82-2.82v-7.15h-16.25v27.08c.22,1.73-1.08,2.82-2.6,2.82Z"/>
      <path class="cls-1" d="M114.18,51.51c-1.52,0-2.6-1.3-2.6-2.82v-24.26h-13.65v4.33c0,1.52-1.3,2.82-2.82,2.82s-2.82-1.3-2.82-2.82v-7.15c0-1.52,1.3-2.82,2.82-2.82h18.85c1.52,0,2.82,1.3,2.82,2.82v27.08c0,1.73-1.08,2.82-2.6,2.82Z"/>
      <path class="cls-1" d="M116.78,75.55c-.22,0-.65,0-.87-.22l-31.63-11.05-31.63,11.27c-.87.22-1.73.22-2.38-.43-.65-.43-1.08-1.3-1.08-2.17v-24.05c0-1.52,1.3-2.82,2.81-2.82h29.9v-17.33c0-1.52,1.3-2.82,2.82-2.82h17.33c1.52,0,2.82,1.3,2.82,2.82v17.33h12.57c1.52,0,2.82,1.3,2.82,2.82v24.05c0,.87-.43,1.73-1.08,2.17-1.3.43-1.73.43-2.38.43ZM84.28,58.66c.22,0,.65,0,.87.22l28.81,10.4v-17.55h-12.57c-1.52,0-2.82-1.3-2.82-2.82v-17.33h-11.92v17.33c0,1.52-1.3,2.82-2.82,2.82h-29.25v17.55l28.81-10.4c.22-.22.65-.22.87-.22Z"/>
      <path class="cls-1" d="M73.45,29.84h-10.83c-1.52,0-2.82-1.3-2.82-2.82s1.3-2.82,2.82-2.82h10.83c1.52,0,2.81,1.3,2.81,2.82,0,1.73-1.3,2.82-2.81,2.82Z"/>
      <path class="cls-1" d="M43.77,138.17c-4.55,0-8.23-3.68-8.23-8.23,0-1.52,1.3-2.82,2.82-2.82s2.82,1.3,2.82,2.82,1.3,2.82,2.82,2.82,2.6-1.3,2.6-2.82,1.3-2.82,2.82-2.82,2.82,1.3,2.82,2.82c-.43,4.55-4.12,8.23-8.45,8.23Z"/>
      <path class="cls-1" d="M54.6,138.17c-4.55,0-8.23-3.68-8.23-8.23,0-1.52,1.3-2.82,2.82-2.82s2.81,1.3,2.81,2.82,1.3,2.82,2.82,2.82,2.82-1.3,2.82-2.82,1.3-2.82,2.82-2.82,2.82,1.3,2.82,2.82c-.65,4.55-4.33,8.23-8.67,8.23Z"/>
      <path class="cls-1" d="M65.44,138.17c-4.55,0-8.23-3.68-8.23-8.23,0-1.52,1.3-2.82,2.81-2.82s2.82,1.3,2.82,2.82,1.3,2.82,2.82,2.82,2.82-1.3,2.82-2.82,1.3-2.82,2.82-2.82,2.81,1.3,2.81,2.82c-.65,4.55-4.33,8.23-8.66,8.23Z"/>
      <path class="cls-1" d="M76.27,138.17c-4.55,0-8.23-3.68-8.23-8.23,0-1.52,1.3-2.82,2.81-2.82s2.82,1.3,2.82,2.82,1.3,2.82,2.82,2.82,2.81-1.3,2.81-2.82,1.3-2.82,2.82-2.82,2.82,1.3,2.82,2.82c-.65,4.55-4.33,8.23-8.67,8.23Z"/>
      <path class="cls-1" d="M87.1,138.17c-4.55,0-8.23-3.68-8.23-8.23,0-1.52,1.3-2.82,2.82-2.82s2.82,1.3,2.82,2.82,1.3,2.82,2.82,2.82,2.82-1.3,2.82-2.82,1.3-2.82,2.82-2.82,2.82,1.3,2.82,2.82c-.65,4.55-4.33,8.23-8.67,8.23Z"/>
      <path class="cls-1" d="M97.93,138.17c-4.55,0-8.23-3.68-8.23-8.23,0-1.52,1.3-2.82,2.82-2.82s2.82,1.3,2.82,2.82,1.3,2.82,2.82,2.82,2.82-1.3,2.82-2.82,1.3-2.82,2.82-2.82,2.81,1.3,2.81,2.82c-.65,4.55-4.33,8.23-8.66,8.23Z"/>
      <path class="cls-1" d="M108.76,138.17c-4.55,0-8.23-3.68-8.23-8.23,0-1.52,1.3-2.82,2.82-2.82s2.82,1.3,2.82,2.82,1.3,2.82,2.82,2.82,2.82-1.3,2.82-2.82,1.3-2.82,2.6-2.82c1.52,0,2.82,1.3,2.82,2.82-.43,4.55-4.12,8.23-8.45,8.23Z"/>
      <path class="cls-1" d="M119.6,138.17c-4.55,0-8.01-3.68-8.01-8.23,0-1.52,1.3-2.82,2.6-2.82,1.52,0,2.81,1.3,2.81,2.82s1.3,2.82,2.82,2.82,2.82-1.3,2.82-2.82,1.3-2.82,2.81-2.82,2.82,1.3,2.82,2.82c-.65,4.55-4.33,8.23-8.67,8.23Z"/>
      <path class="cls-1" d="M92.52,51.51h-8.23c-1.52,0-2.82-1.3-2.82-2.82s1.3-2.82,2.82-2.82h8.23c1.52,0,2.82,1.3,2.82,2.82s-1.3,2.82-2.82,2.82Z"/>
    </g>
  </g>
</svg>