<?xml version="1.0" encoding="UTF-8"?>
<svg id="Isolation_Mode" xmlns="http://www.w3.org/2000/svg" viewBox="0 0 172.4 156.62">
  <defs>
    <style>
      .cls-1 {
        fill: #fff;
      }
    </style>
  </defs>
  <g id="_x36_04_x2C__Clean_x2C__Cleaning_x2C__Neat_x2C__Wash_x2C__Washing">
    <g>
      <path class="cls-1" d="M101.48,111.51c-1.36,0-2.53-1.16-2.53-2.5,0-12.52-10.31-22.91-23.14-22.91-1.36,0-2.53-1.16-2.53-2.5s1.17-2.5,2.53-2.5c6.22,0,12.06-2.31,16.33-6.74,4.28-4.24,6.81-10.01,6.81-16.17,0-1.35,1.17-2.5,2.53-2.5s2.53,1.16,2.53,2.5c0,6.16,2.33,11.94,6.8,16.17,4.28,4.24,10.11,6.74,16.33,6.74,1.36,0,2.53,1.16,2.53,2.5s-1.17,2.5-2.53,2.5c-6.22,0-12.06,2.31-16.33,6.74-4.28,4.24-6.8,10.01-6.8,16.17-.2,1.54-1.36,2.5-2.53,2.5ZM87.29,83.98c6.22,2.7,11.28,7.7,14,13.86,1.36-3.08,3.31-5.78,5.83-8.28,2.53-2.5,5.25-4.43,8.36-5.78-3.11-1.35-5.83-3.27-8.36-5.78-2.53-2.5-4.47-5.2-5.83-8.28-1.36,3.08-3.31,5.78-5.83,8.28-2.33,2.5-5.06,4.43-8.17,5.97Z"/>
      <path class="cls-1" d="M62.59,122.48c-1.36,0-2.53-1.15-2.53-2.5,0-9.24-7.58-16.94-17.11-16.94-1.36,0-2.53-1.16-2.53-2.5s1.17-2.5,2.53-2.5c4.47,0,8.75-1.73,12.06-5.01,3.31-3.27,5.06-7.51,5.06-11.94,0-1.35,1.17-2.5,2.53-2.5s2.33,1.54,2.33,2.89c0,4.43,1.75,8.66,5.06,11.94,3.31,3.27,7.58,5.01,12.06,5.01,1.36,0,2.53,1.16,2.53,2.5s-1.17,2.5-2.53,2.5c-4.47,0-8.75,1.73-12.06,5.01-3.31,2.89-5.06,7.12-5.06,11.55,0,1.35-1.17,2.5-2.33,2.5ZM53.06,100.73c4.08,2.12,7.39,5.39,9.33,9.24.97-1.93,2.33-3.85,3.89-5.39,1.56-1.54,3.5-2.89,5.44-3.85-1.94-.96-3.89-2.31-5.44-3.85-1.56-1.54-2.92-3.47-3.89-5.39-.97,1.93-2.33,3.85-3.89,5.39-1.56,1.54-3.5,2.89-5.44,3.85Z"/>
      <path class="cls-1" d="M83.2,68.19c-1.36,0-2.53-1.16-2.53-2.5,0-9.24-7.58-16.94-17.11-16.94-1.36,0-2.53-1.16-2.53-2.5s1.17-2.5,2.53-2.5c4.47,0,8.75-1.73,12.06-5.01,3.31-3.27,5.06-7.51,5.06-11.94,0-1.35,1.17-2.5,2.53-2.5s2.53,1.16,2.53,2.5c0,4.43,1.75,8.66,5.05,11.94,3.31,3.27,7.59,5.01,12.06,5.01,1.36,0,2.53,1.16,2.53,2.5s-1.17,2.5-2.53,2.5c-4.47,0-8.75,1.73-12.06,5.01-3.3,3.27-5.05,7.51-5.05,11.94-.19,1.54-1.17,2.5-2.53,2.5ZM73.68,46.62c4.08,2.12,7.39,5.39,9.33,9.24.97-1.93,2.33-3.85,3.89-5.39,1.55-1.54,3.5-2.89,5.45-3.85-1.95-.96-3.89-2.31-5.45-3.85-1.56-1.54-2.92-3.47-3.89-5.39-.97,1.93-2.33,3.85-3.89,5.39-1.55,1.54-3.31,2.89-5.44,3.85Z"/>
      <path class="cls-1" d="M39.45,73c-5.44,0-9.72-4.24-9.72-9.63s4.28-9.63,9.72-9.63,9.72,4.24,9.72,9.63-4.47,9.63-9.72,9.63ZM39.45,58.56c-2.72,0-4.86,2.12-4.86,4.81s2.14,4.81,4.86,4.81,4.86-2.12,4.86-4.81-2.14-4.81-4.86-4.81Z"/>
      <path class="cls-1" d="M114.71,128.45c-4.08,0-7.39-3.27-7.39-7.32s3.31-7.32,7.39-7.32,7.39,3.27,7.39,7.32-3.31,7.32-7.39,7.32ZM114.71,118.83c-1.36,0-2.53,1.16-2.53,2.5s1.17,2.5,2.53,2.5,2.53-1.16,2.53-2.5c0-1.54-1.17-2.5-2.53-2.5Z"/>
      <path class="cls-1" d="M119.57,56.25c-4.08,0-7.39-3.27-7.39-7.32s3.31-7.32,7.39-7.32,7.39,3.27,7.39,7.32-3.31,7.32-7.39,7.32ZM119.57,46.62c-1.36,0-2.53,1.16-2.53,2.5s1.17,2.5,2.53,2.5,2.53-1.16,2.53-2.5-1.17-2.5-2.53-2.5Z"/>
    </g>
  </g>
</svg>