<?xml version="1.0" encoding="UTF-8"?>
<svg id="Layer_1" data-name="Layer 1" xmlns="http://www.w3.org/2000/svg" viewBox="0 0 720 360">
  <defs>
    <style>
      .cls-1 {
        fill: #005cc5;
        stroke-width: 0px;
      }
    </style>
  </defs>
  <path class="cls-1" d="M608.78,120.68c3.83,4.92,7.76,9.79,11.51,14.79,13.35,17.82,26.64,35.68,39.96,53.52.83,1.12,1.8,2.15,2.55,3.32,2.58,4.04,1.41,7.3-3.2,8.25-9.92,2.04-19.9,3.81-29.83,5.79-13.09,2.61-26.15,5.34-39.23,7.97-10.15,2.04-20.31,4.05-30.48,6-5.66,1.09-11.34,2.08-17.02,3.01-3.41.56-6.85,1.29-10.27,1.3-33.47.1-66.95-.13-100.42.23-6,.07-8.96-2.1-11.07-7.17-2.38-5.72-5.14-11.29-7.76-16.97h-106.01c-3.94,7.8-7.98,15.79-12.12,23.96h-7.91c-32.3,0-64.61-.18-96.91.12-8.96.08-17.43-2.08-26.04-3.64-10.64-1.92-21.2-4.26-31.8-6.41-13.07-2.66-26.14-5.34-39.22-7.95-10.38-2.08-20.78-4.06-31.17-6.12-1.33-.26-2.78-.47-3.91-1.14-2.91-1.72-3.32-3.52-1.35-6.3,3.62-5.11,7.35-10.13,11.12-15.13,13.56-17.97,27.27-35.83,40.65-53.94,2.19-2.97,3.91-3.61,7.43-2.81,6.96,1.58,14.09,2.39,21.14,3.58,9.99,1.69,19.97,3.45,29.96,5.15,6.36,1.08,12.74,2.08,19.1,3.16,7.95,1.35,15.88,2.84,23.84,4.08,7.53,1.18,15.1,2.09,22.65,3.17,1.35.19,2.67.63,4.52,1.09,9.81-6.98,20.01-14.16,30.12-21.46,9.4-6.79,18.46-14.08,28.14-20.46,7-4.61,11.77-11.04,16.74-17.38,12.89-16.45,25.64-33,38.42-49.53,2.12-2.75,4.04-5.65,6.15-8.41,3.37-4.41,4.87-4.38,8.28.11,17.14,22.54,34.22,45.13,51.45,67.6,1.92,2.5,4.47,4.62,7.04,6.49,17.82,12.92,35.73,25.72,53.62,38.56,2.07,1.49,4.18,2.94,6.12,4.3,41.5-6.87,82.85-13.72,125.22-20.74ZM371.98,130.52l-.4-1.02c-.21.17-.41.34-.62.52.35.16.7.31,1.04.47.54,1.21.88,2.59,1.66,3.61,10.72,13.98,21.46,27.94,32.28,41.84,3.39,4.35,7.02,8.5,10.44,12.61,1.25-.38,2.04-.41,2.54-.81,16.42-12.91,32.81-25.85,49.18-38.81.46-.37.66-1.06,1.32-2.14-1.46-.32-2.48-.58-3.51-.76-4.76-.83-9.52-1.63-14.28-2.47-11.33-1.99-22.65-3.99-33.98-5.99-9.74-1.72-19.46-3.57-29.22-5.13-5.45-.87-10.97-1.29-16.46-1.91ZM172.18,190.27c9.56-5.65,50.5-37.47,54.13-42.09-32.16-5.42-64.04-10.81-95.92-16.13-1.77-.3-3.64-.04-6.19-.04,16.21,19.68,31.99,38.83,47.99,58.26ZM595.61,132.87c-.28-.41-.55-.82-.83-1.23-33.17,5.31-66.34,10.61-99.5,15.95-.36.06-.66.55-1.4,1.22.66.76,1.25,1.72,2.09,2.35,17.07,13.06,34.17,26.09,51.85,39.56,16.23-19.65,32.01-38.75,47.79-57.86ZM305.15,188.64c4.8-6.25,9.68-12.64,14.61-19,5.11-6.6,10.3-13.14,15.4-19.75,4.79-6.22,10.17-12.02,15.03-20.11-33.37,4.99-64.89,11.62-96.71,16.51-.34.05-.59.61-.89.93,3.38,4.45,45.71,37.97,52.56,41.42ZM459.95,136.4c.16-.43.32-.85.48-1.28-2.04-1.48-4.08-2.97-6.12-4.45-11.99-8.68-24.02-17.3-35.95-26.07-2.91-2.14-5.56-2.83-8.81-.79-1.92,1.21-4.17,1.91-6.25,2.89-9.35,4.37-18.7,8.74-29.02,13.57,15.12,3.04,29.03,5.97,43.01,8.6,14.19,2.67,28.44,5.03,42.66,7.52ZM346.91,120.23c-12.43-5.73-24.36-11.07-36.11-16.75-3.01-1.45-4.94-1.07-7.52.84-10.78,7.97-21.77,15.67-32.63,23.52-3.34,2.41-6.55,5.01-9.82,7.52,24.11-3.23,47.78-7.57,71.44-11.98,4.72-.88,9.4-2.01,14.65-3.15ZM395.61,101.32h-69.85c12.48,5.84,23.68,11.09,34.89,16.34,11.25-5.26,22.48-10.51,34.96-16.34ZM169.66,200.63c-20.99.15-41.16-.22-61.31.86,22.23,4.43,44.46,8.87,67.76,13.51-2.4-5.35-4.33-9.67-6.44-14.38ZM544.1,215.01c23.21-4.62,45.44-9.05,67.68-13.47l-.06-.63h-60.79c-2.16,4.46-4.24,8.76-6.83,14.11ZM300.29,196.48c-10.78-8.56-21.38-17.03-32.08-25.39-1.05-.82-2.66-.94-4.02-1.38-.21.34-.43.67-.64,1.01,9.51,13.75,19.02,27.5,28.85,41.72,2.84-5.76,5.34-10.82,7.88-15.96ZM506.77,170.67c-.42.4-.84.79-1.25,1.19,9.52,13.36,19.04,26.72,29.01,40.71,2.75-5.53,5.09-10.22,7.38-14.82-6.07-4.79-11.8-9.47-17.7-13.93-5.8-4.39-11.21-9.36-17.44-13.15ZM457.99,170.84c-.39-.41-.78-.82-1.16-1.23-11.93,9.32-23.85,18.64-35.9,28.06,2.48,4.77,4.75,9.15,7.57,14.6,10.31-14.48,19.9-27.96,29.49-41.43ZM214.72,171.99c-7.6,2.1-12.58,7.63-18.48,11.78-6,4.21-11.46,9.18-17.38,13.99,2.39,4.96,4.57,9.49,7.13,14.82,9.78-13.81,19.26-27.19,28.73-40.58Z"/>
  <g>
    <path class="cls-1" d="M143.3,334.8h-12.99v-41.03l.82-23.71-24.64,28.04-6.91,7.53-6.91-7.53-24.64-28.04.82,23.71v41.03h-12.99v-95.88l43.71,47.42,43.71-47.42v95.88Z"/>
    <path class="cls-1" d="M246.91,288.92c0,26.5-21.44,47.94-47.94,47.94s-47.94-21.44-47.94-47.94,21.44-47.94,47.94-47.94,47.94,21.44,47.94,47.94ZM233.5,288.92c0-19.69-15.46-35.57-34.54-35.57s-34.54,15.88-34.54,35.57,15.46,35.57,34.54,35.57,34.54-15.88,34.54-35.57Z"/>
    <path class="cls-1" d="M291.13,279.64l24.74,28.15-.82-23.71v-41.03h12.99v95.88l-37.53-40.72-24.74-28.15.82,23.71v41.03h-12.99v-95.88l37.53,40.72Z"/>
    <path class="cls-1" d="M423.61,334.8h-14.64l-8.35-18.15h-44.54l-8.15,18.15h-15.26l45.47-95.88,45.47,95.88ZM361.44,304.9h33.82l-17.11-37.12-16.7,37.12Z"/>
    <path class="cls-1" d="M441.44,334.8h-13.2v-91.76h35.67c15.77,0,28.66,12.89,28.66,28.66,0,14.85-11.13,27.73-28.66,27.73h-5.88l36.5,35.36h-18.35l-34.74-35.36v35.36ZM441.44,255v33.51h22.37c7.94,0,15.15-7.22,15.15-16.8,0-8.97-6.6-16.7-15.05-16.7h-22.47Z"/>
    <path class="cls-1" d="M581.45,319.54c-8.76,10.62-22.06,17.32-36.91,17.32-26.5,0-47.94-21.44-47.94-47.94s21.44-47.94,47.94-47.94c14.85,0,28.15,6.7,36.91,17.32l-10.41,6.8c-7.22-7.01-16.19-11.55-26.5-11.55-19.07,0-34.54,15.88-34.54,35.36s15.47,35.36,34.54,35.36c10.31,0,19.28-4.54,26.5-11.55l10.41,6.8Z"/>
    <path class="cls-1" d="M589.69,243.04h13.2v38.04h48.04v-38.04h13.2v91.76h-13.2v-41.75h-48.04v41.75h-13.2v-91.76Z"/>
  </g>
</svg>